<mxfile host="app.diagrams.net" modified="2023-10-10T07:58:00.738Z" agent="Mozilla/5.0 (Windows NT 10.0; Win64; x64) AppleWebKit/537.36 (KHTML, like Gecko) Chrome/117.0.0.0 Safari/537.36" etag="VACEg1zHbXrLVN3ajStg" version="22.0.4" type="device">
  <diagram name="Страница — 1" id="pvWEGRSr74kIbabK7Jle">
    <mxGraphModel dx="1782" dy="485" grid="1" gridSize="10" guides="1" tooltips="1" connect="1" arrows="1" fold="1" page="1" pageScale="1" pageWidth="827" pageHeight="1169" math="0" shadow="0">
      <root>
        <mxCell id="0" />
        <mxCell id="1" parent="0" />
        <mxCell id="dhRhME__oxETCWilV0Q7-1" value="&lt;p style=&quot;margin:0px;margin-top:4px;text-align:center;&quot;&gt;&lt;i&gt;&amp;lt;&amp;lt;Interface&amp;gt;&amp;gt;&lt;/i&gt;&lt;br&gt;&lt;b&gt;IBeverage&lt;/b&gt;&lt;/p&gt;&lt;hr size=&quot;1&quot;&gt;&lt;p style=&quot;margin:0px;margin-left:4px;&quot;&gt;+ GetDescription(): string&lt;br&gt;+ GetCost(): double&lt;/p&gt;" style="verticalAlign=top;align=left;overflow=fill;fontSize=12;fontFamily=Helvetica;html=1;whiteSpace=wrap;" parent="1" vertex="1">
          <mxGeometry x="730" y="90" width="190" height="90" as="geometry" />
        </mxCell>
        <mxCell id="dhRhME__oxETCWilV0Q7-2" value="CBeverage" style="swimlane;fontStyle=1;align=center;verticalAlign=top;childLayout=stackLayout;horizontal=1;startSize=26;horizontalStack=0;resizeParent=1;resizeParentMax=0;resizeLast=0;collapsible=1;marginBottom=0;whiteSpace=wrap;html=1;" parent="1" vertex="1">
          <mxGeometry x="345" y="260" width="160" height="90" as="geometry" />
        </mxCell>
        <mxCell id="dhRhME__oxETCWilV0Q7-5" value="+ m_description: string&lt;br&gt;" style="text;strokeColor=none;fillColor=none;align=left;verticalAlign=top;spacingLeft=4;spacingRight=4;overflow=hidden;rotatable=0;points=[[0,0.5],[1,0.5]];portConstraint=eastwest;whiteSpace=wrap;html=1;" parent="dhRhME__oxETCWilV0Q7-2" vertex="1">
          <mxGeometry y="26" width="160" height="26" as="geometry" />
        </mxCell>
        <mxCell id="dhRhME__oxETCWilV0Q7-4" value="" style="line;strokeWidth=1;fillColor=none;align=left;verticalAlign=middle;spacingTop=-1;spacingLeft=3;spacingRight=3;rotatable=0;labelPosition=right;points=[];portConstraint=eastwest;strokeColor=inherit;" parent="dhRhME__oxETCWilV0Q7-2" vertex="1">
          <mxGeometry y="52" width="160" height="8" as="geometry" />
        </mxCell>
        <mxCell id="dhRhME__oxETCWilV0Q7-3" value="+ GetDescription(): string" style="text;strokeColor=none;fillColor=none;align=left;verticalAlign=top;spacingLeft=4;spacingRight=4;overflow=hidden;rotatable=0;points=[[0,0.5],[1,0.5]];portConstraint=eastwest;whiteSpace=wrap;html=1;" parent="dhRhME__oxETCWilV0Q7-2" vertex="1">
          <mxGeometry y="60" width="160" height="30" as="geometry" />
        </mxCell>
        <mxCell id="dhRhME__oxETCWilV0Q7-6" value="" style="endArrow=block;dashed=1;endFill=0;endSize=12;html=1;rounded=0;" parent="1" source="dhRhME__oxETCWilV0Q7-2" target="dhRhME__oxETCWilV0Q7-1" edge="1">
          <mxGeometry width="160" relative="1" as="geometry">
            <mxPoint x="330" y="280" as="sourcePoint" />
            <mxPoint x="490" y="280" as="targetPoint" />
          </mxGeometry>
        </mxCell>
        <mxCell id="dhRhME__oxETCWilV0Q7-7" value="CCoffee" style="swimlane;fontStyle=1;align=center;verticalAlign=top;childLayout=stackLayout;horizontal=1;startSize=26;horizontalStack=0;resizeParent=1;resizeParentMax=0;resizeLast=0;collapsible=1;marginBottom=0;whiteSpace=wrap;html=1;" parent="1" vertex="1">
          <mxGeometry x="70" y="430" width="160" height="52" as="geometry" />
        </mxCell>
        <mxCell id="dhRhME__oxETCWilV0Q7-10" value="+ GetCost(): double" style="text;strokeColor=none;fillColor=none;align=left;verticalAlign=top;spacingLeft=4;spacingRight=4;overflow=hidden;rotatable=0;points=[[0,0.5],[1,0.5]];portConstraint=eastwest;whiteSpace=wrap;html=1;" parent="dhRhME__oxETCWilV0Q7-7" vertex="1">
          <mxGeometry y="26" width="160" height="26" as="geometry" />
        </mxCell>
        <mxCell id="dhRhME__oxETCWilV0Q7-11" value="Extends" style="endArrow=block;endSize=16;endFill=0;html=1;rounded=0;exitX=0.605;exitY=-0.015;exitDx=0;exitDy=0;exitPerimeter=0;" parent="1" source="dhRhME__oxETCWilV0Q7-7" target="dhRhME__oxETCWilV0Q7-2" edge="1">
          <mxGeometry width="160" relative="1" as="geometry">
            <mxPoint x="330" y="530" as="sourcePoint" />
            <mxPoint x="490" y="530" as="targetPoint" />
          </mxGeometry>
        </mxCell>
        <mxCell id="dhRhME__oxETCWilV0Q7-12" value="CCappuccino" style="swimlane;fontStyle=1;align=center;verticalAlign=top;childLayout=stackLayout;horizontal=1;startSize=26;horizontalStack=0;resizeParent=1;resizeParentMax=0;resizeLast=0;collapsible=1;marginBottom=0;whiteSpace=wrap;html=1;" parent="1" vertex="1">
          <mxGeometry x="-90" y="549" width="250" height="86" as="geometry" />
        </mxCell>
        <mxCell id="dhRhME__oxETCWilV0Q7-13" value="+ m_cappuccinoType: CappuccinoType" style="text;strokeColor=none;fillColor=none;align=left;verticalAlign=top;spacingLeft=4;spacingRight=4;overflow=hidden;rotatable=0;points=[[0,0.5],[1,0.5]];portConstraint=eastwest;whiteSpace=wrap;html=1;" parent="dhRhME__oxETCWilV0Q7-12" vertex="1">
          <mxGeometry y="26" width="250" height="26" as="geometry" />
        </mxCell>
        <mxCell id="dhRhME__oxETCWilV0Q7-14" value="" style="line;strokeWidth=1;fillColor=none;align=left;verticalAlign=middle;spacingTop=-1;spacingLeft=3;spacingRight=3;rotatable=0;labelPosition=right;points=[];portConstraint=eastwest;strokeColor=inherit;" parent="dhRhME__oxETCWilV0Q7-12" vertex="1">
          <mxGeometry y="52" width="250" height="8" as="geometry" />
        </mxCell>
        <mxCell id="dhRhME__oxETCWilV0Q7-15" value="+ GetCost(): double" style="text;strokeColor=none;fillColor=none;align=left;verticalAlign=top;spacingLeft=4;spacingRight=4;overflow=hidden;rotatable=0;points=[[0,0.5],[1,0.5]];portConstraint=eastwest;whiteSpace=wrap;html=1;" parent="dhRhME__oxETCWilV0Q7-12" vertex="1">
          <mxGeometry y="60" width="250" height="26" as="geometry" />
        </mxCell>
        <mxCell id="dhRhME__oxETCWilV0Q7-16" value="CLatte" style="swimlane;fontStyle=1;align=center;verticalAlign=top;childLayout=stackLayout;horizontal=1;startSize=26;horizontalStack=0;resizeParent=1;resizeParentMax=0;resizeLast=0;collapsible=1;marginBottom=0;whiteSpace=wrap;html=1;" parent="1" vertex="1">
          <mxGeometry x="200" y="549" width="250" height="86" as="geometry" />
        </mxCell>
        <mxCell id="dhRhME__oxETCWilV0Q7-17" value="+ m_latteType: LatteType" style="text;strokeColor=none;fillColor=none;align=left;verticalAlign=top;spacingLeft=4;spacingRight=4;overflow=hidden;rotatable=0;points=[[0,0.5],[1,0.5]];portConstraint=eastwest;whiteSpace=wrap;html=1;" parent="dhRhME__oxETCWilV0Q7-16" vertex="1">
          <mxGeometry y="26" width="250" height="26" as="geometry" />
        </mxCell>
        <mxCell id="dhRhME__oxETCWilV0Q7-18" value="" style="line;strokeWidth=1;fillColor=none;align=left;verticalAlign=middle;spacingTop=-1;spacingLeft=3;spacingRight=3;rotatable=0;labelPosition=right;points=[];portConstraint=eastwest;strokeColor=inherit;" parent="dhRhME__oxETCWilV0Q7-16" vertex="1">
          <mxGeometry y="52" width="250" height="8" as="geometry" />
        </mxCell>
        <mxCell id="dhRhME__oxETCWilV0Q7-19" value="+ GetCost(): double" style="text;strokeColor=none;fillColor=none;align=left;verticalAlign=top;spacingLeft=4;spacingRight=4;overflow=hidden;rotatable=0;points=[[0,0.5],[1,0.5]];portConstraint=eastwest;whiteSpace=wrap;html=1;" parent="dhRhME__oxETCWilV0Q7-16" vertex="1">
          <mxGeometry y="60" width="250" height="26" as="geometry" />
        </mxCell>
        <mxCell id="dhRhME__oxETCWilV0Q7-20" value="Extends" style="endArrow=block;endSize=16;endFill=0;html=1;rounded=0;" parent="1" source="dhRhME__oxETCWilV0Q7-12" target="dhRhME__oxETCWilV0Q7-7" edge="1">
          <mxGeometry width="160" relative="1" as="geometry">
            <mxPoint x="330" y="640" as="sourcePoint" />
            <mxPoint x="490" y="640" as="targetPoint" />
          </mxGeometry>
        </mxCell>
        <mxCell id="dhRhME__oxETCWilV0Q7-21" value="Extends" style="endArrow=block;endSize=16;endFill=0;html=1;rounded=0;" parent="1" source="dhRhME__oxETCWilV0Q7-16" target="dhRhME__oxETCWilV0Q7-7" edge="1">
          <mxGeometry width="160" relative="1" as="geometry">
            <mxPoint x="330" y="640" as="sourcePoint" />
            <mxPoint x="490" y="640" as="targetPoint" />
          </mxGeometry>
        </mxCell>
        <mxCell id="dhRhME__oxETCWilV0Q7-22" value="CTea" style="swimlane;fontStyle=1;align=center;verticalAlign=top;childLayout=stackLayout;horizontal=1;startSize=26;horizontalStack=0;resizeParent=1;resizeParentMax=0;resizeLast=0;collapsible=1;marginBottom=0;whiteSpace=wrap;html=1;" parent="1" vertex="1">
          <mxGeometry x="505" y="415" width="160" height="116" as="geometry" />
        </mxCell>
        <mxCell id="dhRhME__oxETCWilV0Q7-26" value="+ m_teaType: string" style="text;strokeColor=none;fillColor=none;align=left;verticalAlign=top;spacingLeft=4;spacingRight=4;overflow=hidden;rotatable=0;points=[[0,0.5],[1,0.5]];portConstraint=eastwest;whiteSpace=wrap;html=1;" parent="dhRhME__oxETCWilV0Q7-22" vertex="1">
          <mxGeometry y="26" width="160" height="26" as="geometry" />
        </mxCell>
        <mxCell id="dhRhME__oxETCWilV0Q7-25" value="" style="line;strokeWidth=1;fillColor=none;align=left;verticalAlign=middle;spacingTop=-1;spacingLeft=3;spacingRight=3;rotatable=0;labelPosition=right;points=[];portConstraint=eastwest;strokeColor=inherit;" parent="dhRhME__oxETCWilV0Q7-22" vertex="1">
          <mxGeometry y="52" width="160" height="8" as="geometry" />
        </mxCell>
        <mxCell id="dhRhME__oxETCWilV0Q7-23" value="+ GetCost(): double" style="text;strokeColor=none;fillColor=none;align=left;verticalAlign=top;spacingLeft=4;spacingRight=4;overflow=hidden;rotatable=0;points=[[0,0.5],[1,0.5]];portConstraint=eastwest;whiteSpace=wrap;html=1;" parent="dhRhME__oxETCWilV0Q7-22" vertex="1">
          <mxGeometry y="60" width="160" height="26" as="geometry" />
        </mxCell>
        <mxCell id="dhRhME__oxETCWilV0Q7-24" value="+ GetDescription(): string" style="text;strokeColor=none;fillColor=none;align=left;verticalAlign=top;spacingLeft=4;spacingRight=4;overflow=hidden;rotatable=0;points=[[0,0.5],[1,0.5]];portConstraint=eastwest;whiteSpace=wrap;html=1;" parent="dhRhME__oxETCWilV0Q7-22" vertex="1">
          <mxGeometry y="86" width="160" height="30" as="geometry" />
        </mxCell>
        <mxCell id="dhRhME__oxETCWilV0Q7-27" value="Extends" style="endArrow=block;endSize=16;endFill=0;html=1;rounded=0;" parent="1" source="dhRhME__oxETCWilV0Q7-22" target="dhRhME__oxETCWilV0Q7-2" edge="1">
          <mxGeometry width="160" relative="1" as="geometry">
            <mxPoint x="280" y="450" as="sourcePoint" />
            <mxPoint x="440" y="450" as="targetPoint" />
          </mxGeometry>
        </mxCell>
        <mxCell id="dhRhME__oxETCWilV0Q7-28" value="CMilkshake" style="swimlane;fontStyle=1;align=center;verticalAlign=top;childLayout=stackLayout;horizontal=1;startSize=26;horizontalStack=0;resizeParent=1;resizeParentMax=0;resizeLast=0;collapsible=1;marginBottom=0;whiteSpace=wrap;html=1;" parent="1" vertex="1">
          <mxGeometry x="740" y="415" width="230" height="116" as="geometry" />
        </mxCell>
        <mxCell id="dhRhME__oxETCWilV0Q7-29" value="+ m_portionSIze: PortionSize" style="text;strokeColor=none;fillColor=none;align=left;verticalAlign=top;spacingLeft=4;spacingRight=4;overflow=hidden;rotatable=0;points=[[0,0.5],[1,0.5]];portConstraint=eastwest;whiteSpace=wrap;html=1;" parent="dhRhME__oxETCWilV0Q7-28" vertex="1">
          <mxGeometry y="26" width="230" height="26" as="geometry" />
        </mxCell>
        <mxCell id="dhRhME__oxETCWilV0Q7-30" value="" style="line;strokeWidth=1;fillColor=none;align=left;verticalAlign=middle;spacingTop=-1;spacingLeft=3;spacingRight=3;rotatable=0;labelPosition=right;points=[];portConstraint=eastwest;strokeColor=inherit;" parent="dhRhME__oxETCWilV0Q7-28" vertex="1">
          <mxGeometry y="52" width="230" height="8" as="geometry" />
        </mxCell>
        <mxCell id="dhRhME__oxETCWilV0Q7-31" value="+ GetCost(): double" style="text;strokeColor=none;fillColor=none;align=left;verticalAlign=top;spacingLeft=4;spacingRight=4;overflow=hidden;rotatable=0;points=[[0,0.5],[1,0.5]];portConstraint=eastwest;whiteSpace=wrap;html=1;" parent="dhRhME__oxETCWilV0Q7-28" vertex="1">
          <mxGeometry y="60" width="230" height="26" as="geometry" />
        </mxCell>
        <mxCell id="dhRhME__oxETCWilV0Q7-32" value="+ GetDescription(): string" style="text;strokeColor=none;fillColor=none;align=left;verticalAlign=top;spacingLeft=4;spacingRight=4;overflow=hidden;rotatable=0;points=[[0,0.5],[1,0.5]];portConstraint=eastwest;whiteSpace=wrap;html=1;" parent="dhRhME__oxETCWilV0Q7-28" vertex="1">
          <mxGeometry y="86" width="230" height="30" as="geometry" />
        </mxCell>
        <mxCell id="dhRhME__oxETCWilV0Q7-33" value="Extends" style="endArrow=block;endSize=16;endFill=0;html=1;rounded=0;" parent="1" source="dhRhME__oxETCWilV0Q7-28" target="dhRhME__oxETCWilV0Q7-2" edge="1">
          <mxGeometry width="160" relative="1" as="geometry">
            <mxPoint x="420" y="610" as="sourcePoint" />
            <mxPoint x="580" y="610" as="targetPoint" />
          </mxGeometry>
        </mxCell>
        <mxCell id="Jj_VbfV7WrRy_A4uPxh4-1" value="CCondimentDecorator" style="swimlane;fontStyle=1;align=center;verticalAlign=top;childLayout=stackLayout;horizontal=1;startSize=26;horizontalStack=0;resizeParent=1;resizeParentMax=0;resizeLast=0;collapsible=1;marginBottom=0;whiteSpace=wrap;html=1;" parent="1" vertex="1">
          <mxGeometry x="1180" y="260" width="270" height="164" as="geometry" />
        </mxCell>
        <mxCell id="Jj_VbfV7WrRy_A4uPxh4-2" value="+ m_beverage: unique_ptr&amp;lt;IBeverage&amp;gt;" style="text;strokeColor=none;fillColor=none;align=left;verticalAlign=top;spacingLeft=4;spacingRight=4;overflow=hidden;rotatable=0;points=[[0,0.5],[1,0.5]];portConstraint=eastwest;whiteSpace=wrap;html=1;" parent="Jj_VbfV7WrRy_A4uPxh4-1" vertex="1">
          <mxGeometry y="26" width="270" height="26" as="geometry" />
        </mxCell>
        <mxCell id="Jj_VbfV7WrRy_A4uPxh4-3" value="" style="line;strokeWidth=1;fillColor=none;align=left;verticalAlign=middle;spacingTop=-1;spacingLeft=3;spacingRight=3;rotatable=0;labelPosition=right;points=[];portConstraint=eastwest;strokeColor=inherit;" parent="Jj_VbfV7WrRy_A4uPxh4-1" vertex="1">
          <mxGeometry y="52" width="270" height="8" as="geometry" />
        </mxCell>
        <mxCell id="Jj_VbfV7WrRy_A4uPxh4-5" value="+ GetCost(): double" style="text;strokeColor=none;fillColor=none;align=left;verticalAlign=top;spacingLeft=4;spacingRight=4;overflow=hidden;rotatable=0;points=[[0,0.5],[1,0.5]];portConstraint=eastwest;whiteSpace=wrap;html=1;" parent="Jj_VbfV7WrRy_A4uPxh4-1" vertex="1">
          <mxGeometry y="60" width="270" height="26" as="geometry" />
        </mxCell>
        <mxCell id="Jj_VbfV7WrRy_A4uPxh4-4" value="+ GetDescription(): string" style="text;strokeColor=none;fillColor=none;align=left;verticalAlign=top;spacingLeft=4;spacingRight=4;overflow=hidden;rotatable=0;points=[[0,0.5],[1,0.5]];portConstraint=eastwest;whiteSpace=wrap;html=1;" parent="Jj_VbfV7WrRy_A4uPxh4-1" vertex="1">
          <mxGeometry y="86" width="270" height="26" as="geometry" />
        </mxCell>
        <mxCell id="Jj_VbfV7WrRy_A4uPxh4-7" value="+ GetCondimentCost(): double" style="text;strokeColor=none;fillColor=none;align=left;verticalAlign=top;spacingLeft=4;spacingRight=4;overflow=hidden;rotatable=0;points=[[0,0.5],[1,0.5]];portConstraint=eastwest;whiteSpace=wrap;html=1;" parent="Jj_VbfV7WrRy_A4uPxh4-1" vertex="1">
          <mxGeometry y="112" width="270" height="26" as="geometry" />
        </mxCell>
        <mxCell id="Jj_VbfV7WrRy_A4uPxh4-6" value="+ GetCondimentDescription(): string" style="text;strokeColor=none;fillColor=none;align=left;verticalAlign=top;spacingLeft=4;spacingRight=4;overflow=hidden;rotatable=0;points=[[0,0.5],[1,0.5]];portConstraint=eastwest;whiteSpace=wrap;html=1;" parent="Jj_VbfV7WrRy_A4uPxh4-1" vertex="1">
          <mxGeometry y="138" width="270" height="26" as="geometry" />
        </mxCell>
        <mxCell id="Jj_VbfV7WrRy_A4uPxh4-8" value="" style="endArrow=block;dashed=1;endFill=0;endSize=12;html=1;rounded=0;" parent="1" source="Jj_VbfV7WrRy_A4uPxh4-1" target="dhRhME__oxETCWilV0Q7-1" edge="1">
          <mxGeometry width="160" relative="1" as="geometry">
            <mxPoint x="890" y="300" as="sourcePoint" />
            <mxPoint x="1050" y="300" as="targetPoint" />
          </mxGeometry>
        </mxCell>
        <mxCell id="Jj_VbfV7WrRy_A4uPxh4-9" value="CCinnamon" style="swimlane;fontStyle=1;align=center;verticalAlign=top;childLayout=stackLayout;horizontal=1;startSize=26;horizontalStack=0;resizeParent=1;resizeParentMax=0;resizeLast=0;collapsible=1;marginBottom=0;whiteSpace=wrap;html=1;" parent="1" vertex="1">
          <mxGeometry x="750" y="700" width="260" height="78" as="geometry" />
        </mxCell>
        <mxCell id="Jj_VbfV7WrRy_A4uPxh4-12" value="+ GetCondimentCost(): double" style="text;strokeColor=none;fillColor=none;align=left;verticalAlign=top;spacingLeft=4;spacingRight=4;overflow=hidden;rotatable=0;points=[[0,0.5],[1,0.5]];portConstraint=eastwest;whiteSpace=wrap;html=1;" parent="Jj_VbfV7WrRy_A4uPxh4-9" vertex="1">
          <mxGeometry y="26" width="260" height="26" as="geometry" />
        </mxCell>
        <mxCell id="Jj_VbfV7WrRy_A4uPxh4-13" value="+ GetCondimentDescription(): string" style="text;strokeColor=none;fillColor=none;align=left;verticalAlign=top;spacingLeft=4;spacingRight=4;overflow=hidden;rotatable=0;points=[[0,0.5],[1,0.5]];portConstraint=eastwest;whiteSpace=wrap;html=1;" parent="Jj_VbfV7WrRy_A4uPxh4-9" vertex="1">
          <mxGeometry y="52" width="260" height="26" as="geometry" />
        </mxCell>
        <mxCell id="Jj_VbfV7WrRy_A4uPxh4-14" value="Extends" style="endArrow=block;endSize=16;endFill=0;html=1;rounded=0;" parent="1" source="Jj_VbfV7WrRy_A4uPxh4-9" target="Jj_VbfV7WrRy_A4uPxh4-1" edge="1">
          <mxGeometry width="160" relative="1" as="geometry">
            <mxPoint x="1090" y="480" as="sourcePoint" />
            <mxPoint x="1250" y="480" as="targetPoint" />
          </mxGeometry>
        </mxCell>
        <mxCell id="Jj_VbfV7WrRy_A4uPxh4-15" value="CLemon" style="swimlane;fontStyle=1;align=center;verticalAlign=top;childLayout=stackLayout;horizontal=1;startSize=26;horizontalStack=0;resizeParent=1;resizeParentMax=0;resizeLast=0;collapsible=1;marginBottom=0;whiteSpace=wrap;html=1;" parent="1" vertex="1">
          <mxGeometry x="1070" y="700" width="260" height="112" as="geometry" />
        </mxCell>
        <mxCell id="Jj_VbfV7WrRy_A4uPxh4-19" value="+ m_quantity: unsigned" style="text;strokeColor=none;fillColor=none;align=left;verticalAlign=top;spacingLeft=4;spacingRight=4;overflow=hidden;rotatable=0;points=[[0,0.5],[1,0.5]];portConstraint=eastwest;whiteSpace=wrap;html=1;" parent="Jj_VbfV7WrRy_A4uPxh4-15" vertex="1">
          <mxGeometry y="26" width="260" height="26" as="geometry" />
        </mxCell>
        <mxCell id="Jj_VbfV7WrRy_A4uPxh4-18" value="" style="line;strokeWidth=1;fillColor=none;align=left;verticalAlign=middle;spacingTop=-1;spacingLeft=3;spacingRight=3;rotatable=0;labelPosition=right;points=[];portConstraint=eastwest;strokeColor=inherit;" parent="Jj_VbfV7WrRy_A4uPxh4-15" vertex="1">
          <mxGeometry y="52" width="260" height="8" as="geometry" />
        </mxCell>
        <mxCell id="Jj_VbfV7WrRy_A4uPxh4-16" value="+ GetCondimentCost(): double" style="text;strokeColor=none;fillColor=none;align=left;verticalAlign=top;spacingLeft=4;spacingRight=4;overflow=hidden;rotatable=0;points=[[0,0.5],[1,0.5]];portConstraint=eastwest;whiteSpace=wrap;html=1;" parent="Jj_VbfV7WrRy_A4uPxh4-15" vertex="1">
          <mxGeometry y="60" width="260" height="26" as="geometry" />
        </mxCell>
        <mxCell id="Jj_VbfV7WrRy_A4uPxh4-17" value="+ GetCondimentDescription(): string" style="text;strokeColor=none;fillColor=none;align=left;verticalAlign=top;spacingLeft=4;spacingRight=4;overflow=hidden;rotatable=0;points=[[0,0.5],[1,0.5]];portConstraint=eastwest;whiteSpace=wrap;html=1;" parent="Jj_VbfV7WrRy_A4uPxh4-15" vertex="1">
          <mxGeometry y="86" width="260" height="26" as="geometry" />
        </mxCell>
        <mxCell id="Jj_VbfV7WrRy_A4uPxh4-20" value="Extends" style="endArrow=block;endSize=16;endFill=0;html=1;rounded=0;" parent="1" source="Jj_VbfV7WrRy_A4uPxh4-15" target="Jj_VbfV7WrRy_A4uPxh4-1" edge="1">
          <mxGeometry width="160" relative="1" as="geometry">
            <mxPoint x="1090" y="480" as="sourcePoint" />
            <mxPoint x="1250" y="480" as="targetPoint" />
          </mxGeometry>
        </mxCell>
        <mxCell id="Jj_VbfV7WrRy_A4uPxh4-21" value="CIceCubes" style="swimlane;fontStyle=1;align=center;verticalAlign=top;childLayout=stackLayout;horizontal=1;startSize=26;horizontalStack=0;resizeParent=1;resizeParentMax=0;resizeLast=0;collapsible=1;marginBottom=0;whiteSpace=wrap;html=1;" parent="1" vertex="1">
          <mxGeometry x="1394" y="700" width="260" height="138" as="geometry" />
        </mxCell>
        <mxCell id="Jj_VbfV7WrRy_A4uPxh4-22" value="+ m_quantity: unsigned" style="text;strokeColor=none;fillColor=none;align=left;verticalAlign=top;spacingLeft=4;spacingRight=4;overflow=hidden;rotatable=0;points=[[0,0.5],[1,0.5]];portConstraint=eastwest;whiteSpace=wrap;html=1;" parent="Jj_VbfV7WrRy_A4uPxh4-21" vertex="1">
          <mxGeometry y="26" width="260" height="26" as="geometry" />
        </mxCell>
        <mxCell id="Jj_VbfV7WrRy_A4uPxh4-26" value="+ m_type: IceCubeType" style="text;strokeColor=none;fillColor=none;align=left;verticalAlign=top;spacingLeft=4;spacingRight=4;overflow=hidden;rotatable=0;points=[[0,0.5],[1,0.5]];portConstraint=eastwest;whiteSpace=wrap;html=1;" parent="Jj_VbfV7WrRy_A4uPxh4-21" vertex="1">
          <mxGeometry y="52" width="260" height="26" as="geometry" />
        </mxCell>
        <mxCell id="Jj_VbfV7WrRy_A4uPxh4-23" value="" style="line;strokeWidth=1;fillColor=none;align=left;verticalAlign=middle;spacingTop=-1;spacingLeft=3;spacingRight=3;rotatable=0;labelPosition=right;points=[];portConstraint=eastwest;strokeColor=inherit;" parent="Jj_VbfV7WrRy_A4uPxh4-21" vertex="1">
          <mxGeometry y="78" width="260" height="8" as="geometry" />
        </mxCell>
        <mxCell id="Jj_VbfV7WrRy_A4uPxh4-24" value="+ GetCondimentCost(): double" style="text;strokeColor=none;fillColor=none;align=left;verticalAlign=top;spacingLeft=4;spacingRight=4;overflow=hidden;rotatable=0;points=[[0,0.5],[1,0.5]];portConstraint=eastwest;whiteSpace=wrap;html=1;" parent="Jj_VbfV7WrRy_A4uPxh4-21" vertex="1">
          <mxGeometry y="86" width="260" height="26" as="geometry" />
        </mxCell>
        <mxCell id="Jj_VbfV7WrRy_A4uPxh4-25" value="+ GetCondimentDescription(): string" style="text;strokeColor=none;fillColor=none;align=left;verticalAlign=top;spacingLeft=4;spacingRight=4;overflow=hidden;rotatable=0;points=[[0,0.5],[1,0.5]];portConstraint=eastwest;whiteSpace=wrap;html=1;" parent="Jj_VbfV7WrRy_A4uPxh4-21" vertex="1">
          <mxGeometry y="112" width="260" height="26" as="geometry" />
        </mxCell>
        <mxCell id="Jj_VbfV7WrRy_A4uPxh4-27" value="Extends" style="endArrow=block;endSize=16;endFill=0;html=1;rounded=0;" parent="1" source="Jj_VbfV7WrRy_A4uPxh4-21" target="Jj_VbfV7WrRy_A4uPxh4-1" edge="1">
          <mxGeometry width="160" relative="1" as="geometry">
            <mxPoint x="1650" y="480" as="sourcePoint" />
            <mxPoint x="1810" y="480" as="targetPoint" />
          </mxGeometry>
        </mxCell>
        <mxCell id="Jj_VbfV7WrRy_A4uPxh4-28" value="CSyrup" style="swimlane;fontStyle=1;align=center;verticalAlign=top;childLayout=stackLayout;horizontal=1;startSize=26;horizontalStack=0;resizeParent=1;resizeParentMax=0;resizeLast=0;collapsible=1;marginBottom=0;whiteSpace=wrap;html=1;" parent="1" vertex="1">
          <mxGeometry x="1700" y="700" width="260" height="112" as="geometry" />
        </mxCell>
        <mxCell id="Jj_VbfV7WrRy_A4uPxh4-29" value="+ m_syrupType: SyrupType" style="text;strokeColor=none;fillColor=none;align=left;verticalAlign=top;spacingLeft=4;spacingRight=4;overflow=hidden;rotatable=0;points=[[0,0.5],[1,0.5]];portConstraint=eastwest;whiteSpace=wrap;html=1;" parent="Jj_VbfV7WrRy_A4uPxh4-28" vertex="1">
          <mxGeometry y="26" width="260" height="26" as="geometry" />
        </mxCell>
        <mxCell id="Jj_VbfV7WrRy_A4uPxh4-30" value="" style="line;strokeWidth=1;fillColor=none;align=left;verticalAlign=middle;spacingTop=-1;spacingLeft=3;spacingRight=3;rotatable=0;labelPosition=right;points=[];portConstraint=eastwest;strokeColor=inherit;" parent="Jj_VbfV7WrRy_A4uPxh4-28" vertex="1">
          <mxGeometry y="52" width="260" height="8" as="geometry" />
        </mxCell>
        <mxCell id="Jj_VbfV7WrRy_A4uPxh4-31" value="+ GetCondimentCost(): double" style="text;strokeColor=none;fillColor=none;align=left;verticalAlign=top;spacingLeft=4;spacingRight=4;overflow=hidden;rotatable=0;points=[[0,0.5],[1,0.5]];portConstraint=eastwest;whiteSpace=wrap;html=1;" parent="Jj_VbfV7WrRy_A4uPxh4-28" vertex="1">
          <mxGeometry y="60" width="260" height="26" as="geometry" />
        </mxCell>
        <mxCell id="Jj_VbfV7WrRy_A4uPxh4-32" value="+ GetCondimentDescription(): string" style="text;strokeColor=none;fillColor=none;align=left;verticalAlign=top;spacingLeft=4;spacingRight=4;overflow=hidden;rotatable=0;points=[[0,0.5],[1,0.5]];portConstraint=eastwest;whiteSpace=wrap;html=1;" parent="Jj_VbfV7WrRy_A4uPxh4-28" vertex="1">
          <mxGeometry y="86" width="260" height="26" as="geometry" />
        </mxCell>
        <mxCell id="Jj_VbfV7WrRy_A4uPxh4-33" value="Extends" style="endArrow=block;endSize=16;endFill=0;html=1;rounded=0;" parent="1" source="Jj_VbfV7WrRy_A4uPxh4-28" target="Jj_VbfV7WrRy_A4uPxh4-1" edge="1">
          <mxGeometry width="160" relative="1" as="geometry">
            <mxPoint x="1330" y="670" as="sourcePoint" />
            <mxPoint x="1490" y="670" as="targetPoint" />
          </mxGeometry>
        </mxCell>
        <mxCell id="Jj_VbfV7WrRy_A4uPxh4-34" value="CChocolateCrumbs" style="swimlane;fontStyle=1;align=center;verticalAlign=top;childLayout=stackLayout;horizontal=1;startSize=26;horizontalStack=0;resizeParent=1;resizeParentMax=0;resizeLast=0;collapsible=1;marginBottom=0;whiteSpace=wrap;html=1;" parent="1" vertex="1">
          <mxGeometry x="2000" y="700" width="260" height="112" as="geometry" />
        </mxCell>
        <mxCell id="Jj_VbfV7WrRy_A4uPxh4-35" value="+ m_mass: unsigned" style="text;strokeColor=none;fillColor=none;align=left;verticalAlign=top;spacingLeft=4;spacingRight=4;overflow=hidden;rotatable=0;points=[[0,0.5],[1,0.5]];portConstraint=eastwest;whiteSpace=wrap;html=1;" parent="Jj_VbfV7WrRy_A4uPxh4-34" vertex="1">
          <mxGeometry y="26" width="260" height="26" as="geometry" />
        </mxCell>
        <mxCell id="Jj_VbfV7WrRy_A4uPxh4-36" value="" style="line;strokeWidth=1;fillColor=none;align=left;verticalAlign=middle;spacingTop=-1;spacingLeft=3;spacingRight=3;rotatable=0;labelPosition=right;points=[];portConstraint=eastwest;strokeColor=inherit;" parent="Jj_VbfV7WrRy_A4uPxh4-34" vertex="1">
          <mxGeometry y="52" width="260" height="8" as="geometry" />
        </mxCell>
        <mxCell id="Jj_VbfV7WrRy_A4uPxh4-37" value="+ GetCondimentCost(): double" style="text;strokeColor=none;fillColor=none;align=left;verticalAlign=top;spacingLeft=4;spacingRight=4;overflow=hidden;rotatable=0;points=[[0,0.5],[1,0.5]];portConstraint=eastwest;whiteSpace=wrap;html=1;" parent="Jj_VbfV7WrRy_A4uPxh4-34" vertex="1">
          <mxGeometry y="60" width="260" height="26" as="geometry" />
        </mxCell>
        <mxCell id="Jj_VbfV7WrRy_A4uPxh4-38" value="+ GetCondimentDescription(): string" style="text;strokeColor=none;fillColor=none;align=left;verticalAlign=top;spacingLeft=4;spacingRight=4;overflow=hidden;rotatable=0;points=[[0,0.5],[1,0.5]];portConstraint=eastwest;whiteSpace=wrap;html=1;" parent="Jj_VbfV7WrRy_A4uPxh4-34" vertex="1">
          <mxGeometry y="86" width="260" height="26" as="geometry" />
        </mxCell>
        <mxCell id="Jj_VbfV7WrRy_A4uPxh4-39" value="Extends" style="endArrow=block;endSize=16;endFill=0;html=1;rounded=0;" parent="1" source="Jj_VbfV7WrRy_A4uPxh4-34" target="Jj_VbfV7WrRy_A4uPxh4-1" edge="1">
          <mxGeometry width="160" relative="1" as="geometry">
            <mxPoint x="1960" y="540" as="sourcePoint" />
            <mxPoint x="2120" y="540" as="targetPoint" />
          </mxGeometry>
        </mxCell>
        <mxCell id="Jj_VbfV7WrRy_A4uPxh4-40" value="CCoconutFlakes" style="swimlane;fontStyle=1;align=center;verticalAlign=top;childLayout=stackLayout;horizontal=1;startSize=26;horizontalStack=0;resizeParent=1;resizeParentMax=0;resizeLast=0;collapsible=1;marginBottom=0;whiteSpace=wrap;html=1;" parent="1" vertex="1">
          <mxGeometry x="1990" y="500" width="260" height="112" as="geometry" />
        </mxCell>
        <mxCell id="Jj_VbfV7WrRy_A4uPxh4-41" value="+ m_mass: unsigned" style="text;strokeColor=none;fillColor=none;align=left;verticalAlign=top;spacingLeft=4;spacingRight=4;overflow=hidden;rotatable=0;points=[[0,0.5],[1,0.5]];portConstraint=eastwest;whiteSpace=wrap;html=1;" parent="Jj_VbfV7WrRy_A4uPxh4-40" vertex="1">
          <mxGeometry y="26" width="260" height="26" as="geometry" />
        </mxCell>
        <mxCell id="Jj_VbfV7WrRy_A4uPxh4-42" value="" style="line;strokeWidth=1;fillColor=none;align=left;verticalAlign=middle;spacingTop=-1;spacingLeft=3;spacingRight=3;rotatable=0;labelPosition=right;points=[];portConstraint=eastwest;strokeColor=inherit;" parent="Jj_VbfV7WrRy_A4uPxh4-40" vertex="1">
          <mxGeometry y="52" width="260" height="8" as="geometry" />
        </mxCell>
        <mxCell id="Jj_VbfV7WrRy_A4uPxh4-43" value="+ GetCondimentCost(): double" style="text;strokeColor=none;fillColor=none;align=left;verticalAlign=top;spacingLeft=4;spacingRight=4;overflow=hidden;rotatable=0;points=[[0,0.5],[1,0.5]];portConstraint=eastwest;whiteSpace=wrap;html=1;" parent="Jj_VbfV7WrRy_A4uPxh4-40" vertex="1">
          <mxGeometry y="60" width="260" height="26" as="geometry" />
        </mxCell>
        <mxCell id="Jj_VbfV7WrRy_A4uPxh4-44" value="+ GetCondimentDescription(): string" style="text;strokeColor=none;fillColor=none;align=left;verticalAlign=top;spacingLeft=4;spacingRight=4;overflow=hidden;rotatable=0;points=[[0,0.5],[1,0.5]];portConstraint=eastwest;whiteSpace=wrap;html=1;" parent="Jj_VbfV7WrRy_A4uPxh4-40" vertex="1">
          <mxGeometry y="86" width="260" height="26" as="geometry" />
        </mxCell>
        <mxCell id="Jj_VbfV7WrRy_A4uPxh4-45" value="Extends" style="endArrow=block;endSize=16;endFill=0;html=1;rounded=0;" parent="1" source="Jj_VbfV7WrRy_A4uPxh4-40" target="Jj_VbfV7WrRy_A4uPxh4-1" edge="1">
          <mxGeometry width="160" relative="1" as="geometry">
            <mxPoint x="1900" y="610" as="sourcePoint" />
            <mxPoint x="2060" y="610" as="targetPoint" />
          </mxGeometry>
        </mxCell>
        <mxCell id="Jj_VbfV7WrRy_A4uPxh4-51" value="CCream" style="swimlane;fontStyle=1;align=center;verticalAlign=top;childLayout=stackLayout;horizontal=1;startSize=26;horizontalStack=0;resizeParent=1;resizeParentMax=0;resizeLast=0;collapsible=1;marginBottom=0;whiteSpace=wrap;html=1;" parent="1" vertex="1">
          <mxGeometry x="1990" y="380" width="260" height="78" as="geometry" />
        </mxCell>
        <mxCell id="Jj_VbfV7WrRy_A4uPxh4-52" value="+ GetCondimentCost(): double" style="text;strokeColor=none;fillColor=none;align=left;verticalAlign=top;spacingLeft=4;spacingRight=4;overflow=hidden;rotatable=0;points=[[0,0.5],[1,0.5]];portConstraint=eastwest;whiteSpace=wrap;html=1;" parent="Jj_VbfV7WrRy_A4uPxh4-51" vertex="1">
          <mxGeometry y="26" width="260" height="26" as="geometry" />
        </mxCell>
        <mxCell id="Jj_VbfV7WrRy_A4uPxh4-53" value="+ GetCondimentDescription(): string" style="text;strokeColor=none;fillColor=none;align=left;verticalAlign=top;spacingLeft=4;spacingRight=4;overflow=hidden;rotatable=0;points=[[0,0.5],[1,0.5]];portConstraint=eastwest;whiteSpace=wrap;html=1;" parent="Jj_VbfV7WrRy_A4uPxh4-51" vertex="1">
          <mxGeometry y="52" width="260" height="26" as="geometry" />
        </mxCell>
        <mxCell id="Jj_VbfV7WrRy_A4uPxh4-54" value="Extends" style="endArrow=block;endSize=16;endFill=0;html=1;rounded=0;" parent="1" source="Jj_VbfV7WrRy_A4uPxh4-51" target="Jj_VbfV7WrRy_A4uPxh4-1" edge="1">
          <mxGeometry width="160" relative="1" as="geometry">
            <mxPoint x="1730" y="350" as="sourcePoint" />
            <mxPoint x="1580" y="300" as="targetPoint" />
          </mxGeometry>
        </mxCell>
        <mxCell id="Jj_VbfV7WrRy_A4uPxh4-55" value="CChocolate" style="swimlane;fontStyle=1;align=center;verticalAlign=top;childLayout=stackLayout;horizontal=1;startSize=26;horizontalStack=0;resizeParent=1;resizeParentMax=0;resizeLast=0;collapsible=1;marginBottom=0;whiteSpace=wrap;html=1;" parent="1" vertex="1">
          <mxGeometry x="1990" y="249" width="260" height="112" as="geometry" />
        </mxCell>
        <mxCell id="Jj_VbfV7WrRy_A4uPxh4-56" value="+ m_sliceCount: unsigned" style="text;strokeColor=none;fillColor=none;align=left;verticalAlign=top;spacingLeft=4;spacingRight=4;overflow=hidden;rotatable=0;points=[[0,0.5],[1,0.5]];portConstraint=eastwest;whiteSpace=wrap;html=1;" parent="Jj_VbfV7WrRy_A4uPxh4-55" vertex="1">
          <mxGeometry y="26" width="260" height="26" as="geometry" />
        </mxCell>
        <mxCell id="Jj_VbfV7WrRy_A4uPxh4-57" value="" style="line;strokeWidth=1;fillColor=none;align=left;verticalAlign=middle;spacingTop=-1;spacingLeft=3;spacingRight=3;rotatable=0;labelPosition=right;points=[];portConstraint=eastwest;strokeColor=inherit;" parent="Jj_VbfV7WrRy_A4uPxh4-55" vertex="1">
          <mxGeometry y="52" width="260" height="8" as="geometry" />
        </mxCell>
        <mxCell id="Jj_VbfV7WrRy_A4uPxh4-58" value="+ GetCondimentCost(): double" style="text;strokeColor=none;fillColor=none;align=left;verticalAlign=top;spacingLeft=4;spacingRight=4;overflow=hidden;rotatable=0;points=[[0,0.5],[1,0.5]];portConstraint=eastwest;whiteSpace=wrap;html=1;" parent="Jj_VbfV7WrRy_A4uPxh4-55" vertex="1">
          <mxGeometry y="60" width="260" height="26" as="geometry" />
        </mxCell>
        <mxCell id="Jj_VbfV7WrRy_A4uPxh4-59" value="+ GetCondimentDescription(): string" style="text;strokeColor=none;fillColor=none;align=left;verticalAlign=top;spacingLeft=4;spacingRight=4;overflow=hidden;rotatable=0;points=[[0,0.5],[1,0.5]];portConstraint=eastwest;whiteSpace=wrap;html=1;" parent="Jj_VbfV7WrRy_A4uPxh4-55" vertex="1">
          <mxGeometry y="86" width="260" height="26" as="geometry" />
        </mxCell>
        <mxCell id="Jj_VbfV7WrRy_A4uPxh4-60" value="Extends" style="endArrow=block;endSize=16;endFill=0;html=1;rounded=0;" parent="1" source="Jj_VbfV7WrRy_A4uPxh4-55" target="Jj_VbfV7WrRy_A4uPxh4-1" edge="1">
          <mxGeometry width="160" relative="1" as="geometry">
            <mxPoint x="1860" y="490" as="sourcePoint" />
            <mxPoint x="2020" y="490" as="targetPoint" />
          </mxGeometry>
        </mxCell>
        <mxCell id="Jj_VbfV7WrRy_A4uPxh4-61" value="CLiquor" style="swimlane;fontStyle=1;align=center;verticalAlign=top;childLayout=stackLayout;horizontal=1;startSize=26;horizontalStack=0;resizeParent=1;resizeParentMax=0;resizeLast=0;collapsible=1;marginBottom=0;whiteSpace=wrap;html=1;" parent="1" vertex="1">
          <mxGeometry x="1990" y="110" width="260" height="112" as="geometry" />
        </mxCell>
        <mxCell id="Jj_VbfV7WrRy_A4uPxh4-62" value="+ m_liquorType: LiquorType" style="text;strokeColor=none;fillColor=none;align=left;verticalAlign=top;spacingLeft=4;spacingRight=4;overflow=hidden;rotatable=0;points=[[0,0.5],[1,0.5]];portConstraint=eastwest;whiteSpace=wrap;html=1;" parent="Jj_VbfV7WrRy_A4uPxh4-61" vertex="1">
          <mxGeometry y="26" width="260" height="26" as="geometry" />
        </mxCell>
        <mxCell id="Jj_VbfV7WrRy_A4uPxh4-63" value="" style="line;strokeWidth=1;fillColor=none;align=left;verticalAlign=middle;spacingTop=-1;spacingLeft=3;spacingRight=3;rotatable=0;labelPosition=right;points=[];portConstraint=eastwest;strokeColor=inherit;" parent="Jj_VbfV7WrRy_A4uPxh4-61" vertex="1">
          <mxGeometry y="52" width="260" height="8" as="geometry" />
        </mxCell>
        <mxCell id="Jj_VbfV7WrRy_A4uPxh4-64" value="+ GetCondimentCost(): double" style="text;strokeColor=none;fillColor=none;align=left;verticalAlign=top;spacingLeft=4;spacingRight=4;overflow=hidden;rotatable=0;points=[[0,0.5],[1,0.5]];portConstraint=eastwest;whiteSpace=wrap;html=1;" parent="Jj_VbfV7WrRy_A4uPxh4-61" vertex="1">
          <mxGeometry y="60" width="260" height="26" as="geometry" />
        </mxCell>
        <mxCell id="Jj_VbfV7WrRy_A4uPxh4-65" value="+ GetCondimentDescription(): string" style="text;strokeColor=none;fillColor=none;align=left;verticalAlign=top;spacingLeft=4;spacingRight=4;overflow=hidden;rotatable=0;points=[[0,0.5],[1,0.5]];portConstraint=eastwest;whiteSpace=wrap;html=1;" parent="Jj_VbfV7WrRy_A4uPxh4-61" vertex="1">
          <mxGeometry y="86" width="260" height="26" as="geometry" />
        </mxCell>
        <mxCell id="Jj_VbfV7WrRy_A4uPxh4-66" value="Extends" style="endArrow=block;endSize=16;endFill=0;html=1;rounded=0;" parent="1" source="Jj_VbfV7WrRy_A4uPxh4-61" target="Jj_VbfV7WrRy_A4uPxh4-1" edge="1">
          <mxGeometry width="160" relative="1" as="geometry">
            <mxPoint x="1510" y="430" as="sourcePoint" />
            <mxPoint x="1670" y="430" as="targetPoint" />
          </mxGeometry>
        </mxCell>
        <mxCell id="o5inphfOO2hku5U9wP4D-2" value="" style="endArrow=diamondThin;endFill=1;endSize=24;html=1;rounded=0;" edge="1" parent="1" source="dhRhME__oxETCWilV0Q7-1" target="Jj_VbfV7WrRy_A4uPxh4-1">
          <mxGeometry width="160" relative="1" as="geometry">
            <mxPoint x="1030" y="300" as="sourcePoint" />
            <mxPoint x="1190" y="300" as="targetPoint" />
            <Array as="points">
              <mxPoint x="830" y="342" />
            </Array>
          </mxGeometry>
        </mxCell>
      </root>
    </mxGraphModel>
  </diagram>
</mxfile>
